<svg id="visual" viewBox="0 0 960 540" width="960" height="540" xmlns="http://www.w3.org/2000/svg" xmlns:xlink="http://www.w3.org/1999/xlink" version="1.1"><rect x="0" y="0" width="960" height="540" fill="#202731"></rect><g transform="translate(517.4785465864011 236.96925290586165)"><path d="M93.4 -160.2C122.9 -144.9 149.8 -123.4 156.3 -95.7C162.8 -68 148.9 -34 147.2 -1C145.4 32 155.9 64 154.2 100.1C152.5 136.2 138.8 176.3 111 205.3C83.3 234.3 41.7 252.2 4.5 244.4C-32.7 236.6 -65.3 203.2 -97.5 176.7C-129.7 150.3 -161.4 130.9 -187.6 102.6C-213.7 74.3 -234.4 37.2 -232.9 0.8C-231.5 -35.5 -208 -71 -177.5 -91.8C-147 -112.6 -109.5 -118.6 -78.7 -133.2C-48 -147.8 -24 -170.9 4 -177.8C32 -184.8 64 -175.5 93.4 -160.2" fill="#920e45"></path></g></svg>