<svg id="visual" viewBox="0 0 900 600" width="900" height="600" xmlns="http://www.w3.org/2000/svg" xmlns:xlink="http://www.w3.org/1999/xlink" version="1.1"><rect x="0" y="0" width="900" height="600" fill="#202731"></rect><path d="M0 166L21.5 177.8C43 189.7 86 213.3 128.8 216.8C171.7 220.3 214.3 203.7 257.2 199.3C300 195 343 203 385.8 201.7C428.7 200.3 471.3 189.7 514.2 182.5C557 175.3 600 171.7 642.8 169.7C685.7 167.7 728.3 167.3 771.2 170.3C814 173.3 857 179.7 878.5 182.8L900 186L900 0L878.5 0C857 0 814 0 771.2 0C728.3 0 685.7 0 642.8 0C600 0 557 0 514.2 0C471.3 0 428.7 0 385.8 0C343 0 300 0 257.2 0C214.3 0 171.7 0 128.8 0C86 0 43 0 21.5 0L0 0Z" fill="#c62368"></path><path d="M0 155L21.5 150C43 145 86 135 128.8 140.7C171.7 146.3 214.3 167.7 257.2 172C300 176.3 343 163.7 385.8 157.7C428.7 151.7 471.3 152.3 514.2 153.7C557 155 600 157 642.8 165.7C685.7 174.3 728.3 189.7 771.2 194.5C814 199.3 857 193.7 878.5 190.8L900 188L900 0L878.5 0C857 0 814 0 771.2 0C728.3 0 685.7 0 642.8 0C600 0 557 0 514.2 0C471.3 0 428.7 0 385.8 0C343 0 300 0 257.2 0C214.3 0 171.7 0 128.8 0C86 0 43 0 21.5 0L0 0Z" fill="#da678b"></path><path d="M0 146L21.5 142.7C43 139.3 86 132.7 128.8 129.7C171.7 126.7 214.3 127.3 257.2 124.5C300 121.7 343 115.3 385.8 117.3C428.7 119.3 471.3 129.7 514.2 128.2C557 126.7 600 113.3 642.8 108C685.7 102.7 728.3 105.3 771.2 110.7C814 116 857 124 878.5 128L900 132L900 0L878.5 0C857 0 814 0 771.2 0C728.3 0 685.7 0 642.8 0C600 0 557 0 514.2 0C471.3 0 428.7 0 385.8 0C343 0 300 0 257.2 0C214.3 0 171.7 0 128.8 0C86 0 43 0 21.5 0L0 0Z" fill="#ea9bb0"></path><path d="M0 98L21.5 100C43 102 86 106 128.8 105.2C171.7 104.3 214.3 98.7 257.2 96.2C300 93.7 343 94.3 385.8 95.2C428.7 96 471.3 97 514.2 91C557 85 600 72 642.8 70.2C685.7 68.3 728.3 77.7 771.2 83.8C814 90 857 93 878.5 94.5L900 96L900 0L878.5 0C857 0 814 0 771.2 0C728.3 0 685.7 0 642.8 0C600 0 557 0 514.2 0C471.3 0 428.7 0 385.8 0C343 0 300 0 257.2 0C214.3 0 171.7 0 128.8 0C86 0 43 0 21.5 0L0 0Z" fill="#f7cdd7"></path><path d="M0 26L21.5 34C43 42 86 58 128.8 63.5C171.7 69 214.3 64 257.2 64C300 64 343 69 385.8 70.3C428.7 71.7 471.3 69.3 514.2 69.2C557 69 600 71 642.8 64.5C685.7 58 728.3 43 771.2 38.7C814 34.3 857 40.7 878.5 43.8L900 47L900 0L878.5 0C857 0 814 0 771.2 0C728.3 0 685.7 0 642.8 0C600 0 557 0 514.2 0C471.3 0 428.7 0 385.8 0C343 0 300 0 257.2 0C214.3 0 171.7 0 128.8 0C86 0 43 0 21.5 0L0 0Z" fill="#ffffff"></path></svg>