<svg id="visual" viewBox="0 0 960 540" width="960" height="540" xmlns="http://www.w3.org/2000/svg" xmlns:xlink="http://www.w3.org/1999/xlink" version="1.1"><rect x="0" y="0" width="960" height="540" fill="#FF0066"></rect><path d="M0 172L22.8 177.7C45.7 183.3 91.3 194.7 137 203.2C182.7 211.7 228.3 217.3 274 208.3C319.7 199.3 365.3 175.7 411.2 168.5C457 161.3 503 170.7 548.8 180.2C594.7 189.7 640.3 199.3 686 201.2C731.7 203 777.3 197 823 196.5C868.7 196 914.3 201 937.2 203.5L960 206L960 0L937.2 0C914.3 0 868.7 0 823 0C777.3 0 731.7 0 686 0C640.3 0 594.7 0 548.8 0C503 0 457 0 411.2 0C365.3 0 319.7 0 274 0C228.3 0 182.7 0 137 0C91.3 0 45.7 0 22.8 0L0 0Z" fill="#c62368"></path><path d="M0 126L22.8 127.5C45.7 129 91.3 132 137 141.5C182.7 151 228.3 167 274 165.8C319.7 164.7 365.3 146.3 411.2 139.7C457 133 503 138 548.8 144.5C594.7 151 640.3 159 686 160.8C731.7 162.7 777.3 158.3 823 152.3C868.7 146.3 914.3 138.7 937.2 134.8L960 131L960 0L937.2 0C914.3 0 868.7 0 823 0C777.3 0 731.7 0 686 0C640.3 0 594.7 0 548.8 0C503 0 457 0 411.2 0C365.3 0 319.7 0 274 0C228.3 0 182.7 0 137 0C91.3 0 45.7 0 22.8 0L0 0Z" fill="#913376"></path><path d="M0 84L22.8 89.5C45.7 95 91.3 106 137 110C182.7 114 228.3 111 274 112.7C319.7 114.3 365.3 120.7 411.2 117.8C457 115 503 103 548.8 96C594.7 89 640.3 87 686 87.3C731.7 87.7 777.3 90.3 823 96C868.7 101.7 914.3 110.3 937.2 114.7L960 119L960 0L937.2 0C914.3 0 868.7 0 823 0C777.3 0 731.7 0 686 0C640.3 0 594.7 0 548.8 0C503 0 457 0 411.2 0C365.3 0 319.7 0 274 0C228.3 0 182.7 0 137 0C91.3 0 45.7 0 22.8 0L0 0Z" fill="#5b396f"></path><path d="M0 51L22.8 52.3C45.7 53.7 91.3 56.3 137 61.5C182.7 66.7 228.3 74.3 274 77.2C319.7 80 365.3 78 411.2 77.7C457 77.3 503 78.7 548.8 83C594.7 87.3 640.3 94.7 686 97.8C731.7 101 777.3 100 823 97.5C868.7 95 914.3 91 937.2 89L960 87L960 0L937.2 0C914.3 0 868.7 0 823 0C777.3 0 731.7 0 686 0C640.3 0 594.7 0 548.8 0C503 0 457 0 411.2 0C365.3 0 319.7 0 274 0C228.3 0 182.7 0 137 0C91.3 0 45.7 0 22.8 0L0 0Z" fill="#313455"></path><path d="M0 49L22.8 48.8C45.7 48.7 91.3 48.3 137 49.7C182.7 51 228.3 54 274 53.7C319.7 53.3 365.3 49.7 411.2 44.5C457 39.3 503 32.7 548.8 33.3C594.7 34 640.3 42 686 47.5C731.7 53 777.3 56 823 53.5C868.7 51 914.3 43 937.2 39L960 35L960 0L937.2 0C914.3 0 868.7 0 823 0C777.3 0 731.7 0 686 0C640.3 0 594.7 0 548.8 0C503 0 457 0 411.2 0C365.3 0 319.7 0 274 0C228.3 0 182.7 0 137 0C91.3 0 45.7 0 22.8 0L0 0Z" fill="#202731"></path></svg>