<svg id="visual" viewBox="0 0 960 540" width="960" height="540" xmlns="http://www.w3.org/2000/svg" xmlns:xlink="http://www.w3.org/1999/xlink" version="1.1"><rect x="0" y="0" width="960" height="540" fill="#FFFFFF"></rect><path d="M0 176L22.8 173.8C45.7 171.7 91.3 167.3 137 168.7C182.7 170 228.3 177 274 178C319.7 179 365.3 174 411.2 175.7C457 177.3 503 185.7 548.8 190C594.7 194.3 640.3 194.7 686 196.2C731.7 197.7 777.3 200.3 823 191.5C868.7 182.7 914.3 162.3 937.2 152.2L960 142L960 0L937.2 0C914.3 0 868.7 0 823 0C777.3 0 731.7 0 686 0C640.3 0 594.7 0 548.8 0C503 0 457 0 411.2 0C365.3 0 319.7 0 274 0C228.3 0 182.7 0 137 0C91.3 0 45.7 0 22.8 0L0 0Z" fill="#ff0066"></path><path d="M0 161L22.8 164C45.7 167 91.3 173 137 171.2C182.7 169.3 228.3 159.7 274 154.7C319.7 149.7 365.3 149.3 411.2 144.8C457 140.3 503 131.7 548.8 133.7C594.7 135.7 640.3 148.3 686 158.2C731.7 168 777.3 175 823 166.5C868.7 158 914.3 134 937.2 122L960 110L960 0L937.2 0C914.3 0 868.7 0 823 0C777.3 0 731.7 0 686 0C640.3 0 594.7 0 548.8 0C503 0 457 0 411.2 0C365.3 0 319.7 0 274 0C228.3 0 182.7 0 137 0C91.3 0 45.7 0 22.8 0L0 0Z" fill="#bd2b84"></path><path d="M0 79L22.8 87C45.7 95 91.3 111 137 121.7C182.7 132.3 228.3 137.7 274 138.5C319.7 139.3 365.3 135.7 411.2 133.2C457 130.7 503 129.3 548.8 126.3C594.7 123.3 640.3 118.7 686 110.8C731.7 103 777.3 92 823 91C868.7 90 914.3 99 937.2 103.5L960 108L960 0L937.2 0C914.3 0 868.7 0 823 0C777.3 0 731.7 0 686 0C640.3 0 594.7 0 548.8 0C503 0 457 0 411.2 0C365.3 0 319.7 0 274 0C228.3 0 182.7 0 137 0C91.3 0 45.7 0 22.8 0L0 0Z" fill="#733c81"></path><path d="M0 71L22.8 73.8C45.7 76.7 91.3 82.3 137 83.7C182.7 85 228.3 82 274 83.3C319.7 84.7 365.3 90.3 411.2 92.8C457 95.3 503 94.7 548.8 93.2C594.7 91.7 640.3 89.3 686 90.2C731.7 91 777.3 95 823 91.7C868.7 88.3 914.3 77.7 937.2 72.3L960 67L960 0L937.2 0C914.3 0 868.7 0 823 0C777.3 0 731.7 0 686 0C640.3 0 594.7 0 548.8 0C503 0 457 0 411.2 0C365.3 0 319.7 0 274 0C228.3 0 182.7 0 137 0C91.3 0 45.7 0 22.8 0L0 0Z" fill="#373860"></path><path d="M0 23L22.8 25.8C45.7 28.7 91.3 34.3 137 38C182.7 41.7 228.3 43.3 274 47.2C319.7 51 365.3 57 411.2 57.2C457 57.3 503 51.7 548.8 46C594.7 40.3 640.3 34.7 686 36C731.7 37.3 777.3 45.7 823 47.5C868.7 49.3 914.3 44.7 937.2 42.3L960 40L960 0L937.2 0C914.3 0 868.7 0 823 0C777.3 0 731.7 0 686 0C640.3 0 594.7 0 548.8 0C503 0 457 0 411.2 0C365.3 0 319.7 0 274 0C228.3 0 182.7 0 137 0C91.3 0 45.7 0 22.8 0L0 0Z" fill="#202731"></path></svg>